<mxfile host="app.diagrams.net" modified="2021-11-07T13:11:33.199Z" agent="5.0 (Windows NT 10.0; Win64; x64) AppleWebKit/537.36 (KHTML, like Gecko) Chrome/95.0.4638.69 Safari/537.36" etag="hQeK4nWrE9QbZA9tu6Tp" version="15.7.0" type="github">
  <diagram id="1FTK7NAMOZeuKrFusbbK" name="第 1 页">
    <mxGraphModel dx="1695" dy="482" grid="1" gridSize="10" guides="1" tooltips="1" connect="1" arrows="1" fold="1" page="1" pageScale="1" pageWidth="827" pageHeight="1169" math="0" shadow="0">
      <root>
        <mxCell id="0" />
        <mxCell id="1" parent="0" />
        <mxCell id="U3p7lJkMkSqQmF48Ks4i-43" value="Darwin" style="whiteSpace=wrap;html=1;rounded=1;arcSize=50;align=center;verticalAlign=middle;strokeWidth=1;autosize=1;spacing=4;treeFolding=1;treeMoving=1;newEdgeStyle={&quot;edgeStyle&quot;:&quot;entityRelationEdgeStyle&quot;,&quot;startArrow&quot;:&quot;none&quot;,&quot;endArrow&quot;:&quot;none&quot;,&quot;segment&quot;:10,&quot;curved&quot;:1};sketch=0;" vertex="1" parent="1">
          <mxGeometry x="236" y="230" width="80" height="30" as="geometry" />
        </mxCell>
        <mxCell id="U3p7lJkMkSqQmF48Ks4i-44" value="" style="edgeStyle=entityRelationEdgeStyle;startArrow=none;endArrow=none;segment=10;curved=1;rounded=0;exitX=1;exitY=0.5;exitDx=0;exitDy=0;" edge="1" target="U3p7lJkMkSqQmF48Ks4i-43" parent="1" source="U3p7lJkMkSqQmF48Ks4i-77">
          <mxGeometry relative="1" as="geometry">
            <mxPoint x="170" y="320" as="sourcePoint" />
          </mxGeometry>
        </mxCell>
        <mxCell id="U3p7lJkMkSqQmF48Ks4i-82" value="" style="edgeStyle=entityRelationEdgeStyle;orthogonalLoop=1;jettySize=auto;html=1;endArrow=none;endFill=0;entryX=0;entryY=0.5;entryDx=0;entryDy=0;" edge="1" parent="1" source="U3p7lJkMkSqQmF48Ks4i-60" target="U3p7lJkMkSqQmF48Ks4i-81">
          <mxGeometry relative="1" as="geometry" />
        </mxCell>
        <mxCell id="U3p7lJkMkSqQmF48Ks4i-60" value="Evolution" style="whiteSpace=wrap;html=1;rounded=1;arcSize=50;align=center;verticalAlign=middle;strokeWidth=1;autosize=1;spacing=4;treeFolding=1;treeMoving=1;newEdgeStyle={&quot;edgeStyle&quot;:&quot;entityRelationEdgeStyle&quot;,&quot;startArrow&quot;:&quot;none&quot;,&quot;endArrow&quot;:&quot;none&quot;,&quot;segment&quot;:10,&quot;curved&quot;:1};sketch=0;" vertex="1" parent="1">
          <mxGeometry x="231" y="298" width="90" height="30" as="geometry" />
        </mxCell>
        <mxCell id="U3p7lJkMkSqQmF48Ks4i-61" value="" style="edgeStyle=entityRelationEdgeStyle;startArrow=none;endArrow=none;segment=10;curved=1;rounded=0;exitX=1;exitY=0.5;exitDx=0;exitDy=0;" edge="1" target="U3p7lJkMkSqQmF48Ks4i-60" parent="1" source="U3p7lJkMkSqQmF48Ks4i-77">
          <mxGeometry relative="1" as="geometry">
            <mxPoint x="170" y="320" as="sourcePoint" />
          </mxGeometry>
        </mxCell>
        <mxCell id="U3p7lJkMkSqQmF48Ks4i-64" value="Loader" style="whiteSpace=wrap;html=1;rounded=1;arcSize=50;align=center;verticalAlign=middle;strokeWidth=1;autosize=1;spacing=4;treeFolding=1;treeMoving=1;newEdgeStyle={&quot;edgeStyle&quot;:&quot;entityRelationEdgeStyle&quot;,&quot;startArrow&quot;:&quot;none&quot;,&quot;endArrow&quot;:&quot;none&quot;,&quot;segment&quot;:10,&quot;curved&quot;:1};sketch=0;" vertex="1" parent="1">
          <mxGeometry x="236" y="370" width="80" height="30" as="geometry" />
        </mxCell>
        <mxCell id="U3p7lJkMkSqQmF48Ks4i-65" value="" style="edgeStyle=entityRelationEdgeStyle;startArrow=none;endArrow=none;segment=10;curved=1;rounded=0;exitX=1;exitY=0.5;exitDx=0;exitDy=0;" edge="1" target="U3p7lJkMkSqQmF48Ks4i-64" parent="1" source="U3p7lJkMkSqQmF48Ks4i-77">
          <mxGeometry relative="1" as="geometry">
            <mxPoint x="170" y="320" as="sourcePoint" />
          </mxGeometry>
        </mxCell>
        <mxCell id="U3p7lJkMkSqQmF48Ks4i-78" value="" style="edgeStyle=orthogonalEdgeStyle;rounded=0;orthogonalLoop=1;jettySize=auto;html=1;endArrow=none;endFill=0;" edge="1" parent="1" source="U3p7lJkMkSqQmF48Ks4i-75" target="U3p7lJkMkSqQmF48Ks4i-77">
          <mxGeometry relative="1" as="geometry" />
        </mxCell>
        <mxCell id="U3p7lJkMkSqQmF48Ks4i-75" value="数据底座" style="whiteSpace=wrap;html=1;rounded=1;arcSize=50;align=center;verticalAlign=middle;strokeWidth=1;autosize=1;spacing=4;treeFolding=1;treeMoving=1;newEdgeStyle={&quot;edgeStyle&quot;:&quot;entityRelationEdgeStyle&quot;,&quot;startArrow&quot;:&quot;none&quot;,&quot;endArrow&quot;:&quot;none&quot;,&quot;segment&quot;:10,&quot;curved&quot;:1};sketch=0;" vertex="1" parent="1">
          <mxGeometry x="-69" y="298" width="90" height="30" as="geometry" />
        </mxCell>
        <mxCell id="U3p7lJkMkSqQmF48Ks4i-77" value="实时计算" style="whiteSpace=wrap;html=1;rounded=1;arcSize=50;align=center;verticalAlign=middle;strokeWidth=1;autosize=1;spacing=4;treeFolding=1;treeMoving=1;newEdgeStyle={&quot;edgeStyle&quot;:&quot;entityRelationEdgeStyle&quot;,&quot;startArrow&quot;:&quot;none&quot;,&quot;endArrow&quot;:&quot;none&quot;,&quot;segment&quot;:10,&quot;curved&quot;:1};sketch=0;" vertex="1" parent="1">
          <mxGeometry x="61" y="298" width="90" height="30" as="geometry" />
        </mxCell>
        <mxCell id="U3p7lJkMkSqQmF48Ks4i-79" value="数据库对接" style="whiteSpace=wrap;html=1;rounded=1;arcSize=50;align=center;verticalAlign=middle;strokeWidth=1;autosize=1;spacing=4;treeFolding=1;treeMoving=1;newEdgeStyle={&quot;edgeStyle&quot;:&quot;entityRelationEdgeStyle&quot;,&quot;startArrow&quot;:&quot;none&quot;,&quot;endArrow&quot;:&quot;none&quot;,&quot;segment&quot;:10,&quot;curved&quot;:1};sketch=0;" vertex="1" parent="1">
          <mxGeometry x="385" y="178" width="100" height="30" as="geometry" />
        </mxCell>
        <mxCell id="U3p7lJkMkSqQmF48Ks4i-80" value="" style="edgeStyle=entityRelationEdgeStyle;startArrow=none;endArrow=none;segment=10;curved=1;rounded=0;exitX=1;exitY=0.5;exitDx=0;exitDy=0;" edge="1" target="U3p7lJkMkSqQmF48Ks4i-79" parent="1" source="U3p7lJkMkSqQmF48Ks4i-43">
          <mxGeometry relative="1" as="geometry">
            <mxPoint x="338" y="210" as="sourcePoint" />
          </mxGeometry>
        </mxCell>
        <mxCell id="U3p7lJkMkSqQmF48Ks4i-81" value="Evolution" style="whiteSpace=wrap;html=1;rounded=1;arcSize=50;align=center;verticalAlign=middle;strokeWidth=1;autosize=1;spacing=4;treeFolding=1;treeMoving=1;newEdgeStyle={&quot;edgeStyle&quot;:&quot;entityRelationEdgeStyle&quot;,&quot;startArrow&quot;:&quot;none&quot;,&quot;endArrow&quot;:&quot;none&quot;,&quot;segment&quot;:10,&quot;curved&quot;:1};sketch=0;" vertex="1" parent="1">
          <mxGeometry x="390" y="298" width="90" height="30" as="geometry" />
        </mxCell>
      </root>
    </mxGraphModel>
  </diagram>
</mxfile>
